<?xml version="1.0" encoding="utf-8"?>
<!-- Generator: Adobe Illustrator 26.0.1, SVG Export Plug-In . SVG Version: 6.00 Build 0)  -->
<svg version="1.1" id="Capa_1" xmlns="http://www.w3.org/2000/svg" xmlns:xlink="http://www.w3.org/1999/xlink" x="0px" y="0px"
	 viewBox="0 0 950 109" style="enable-background:new 0 0 950 109;" xml:space="preserve">
<style type="text/css">
	.st0{fill:#FFFFFF;}
	.st1{fill:url(#SVGID_1_);}
	.st2{fill:url(#SVGID_00000124139865801282786950000009738937429321141167_);}
	.st3{fill:#29ABE2;}
</style>
<path class="st0" d="M264.8,69c1.1,0,2-0.9,2-2V39.8c0-1.1-0.9-2-2-2h-2.2c-1.1,0-2,0.9-2,2V67c0,1.1,0.9,2,2,2H264.8z"/>
<path class="st0" d="M311.9,69c1.1,0,2-0.9,2-2V39.8c0-1.1-0.9-2-2-2h-2.1c-1.1,0-2,0.9-2,2v18.6l-12.4-19.7c-0.4-0.6-1-0.9-1.7-0.9
	h-4.5c-1.1,0-2,0.9-2,2V67c0,1.1,0.9,2,2,2h2.1c1.1,0,2-0.9,2-2V46.9L307,68.1c0.4,0.6,1,0.9,1.7,0.9H311.9z"/>
<path class="st0" d="M355.3,43.6c1.1,0,2-0.9,2-2v-1.8c0-1.1-0.9-2-2-2h-21.8c-1.1,0-2,0.9-2,2v1.8c0,1.1,0.9,2,2,2h7.9V67
	c0,1.1,0.9,2,2,2h2.1c1.1,0,2-0.9,2-2V43.6H355.3z"/>
<path class="st0" d="M392.4,69c1.1,0,2-0.9,2-2v-1.7c0-1.1-0.9-2-2-2H381v-7.2h10.2c1.1,0,2-0.9,2-2v-1.4c0-1.1-0.9-2-2-2H381v-7.1
	h11.5c1.1,0,2-0.9,2-2v-1.7c0-1.1-0.9-2-2-2h-15.5c-1.1,0-2,0.9-2,2V67c0,1.1,0.9,2,2,2H392.4z"/>
<path class="st0" d="M428.4,67.9c0.3,0.7,1,1.1,1.8,1.1h2.2c1.5,0,2.5-1.6,1.8-2.9l-5.2-9.8c4.1-1.2,6.6-4.5,6.6-8.8
	c0-5.4-3.9-9.6-9.9-9.6h-10.2c-1.1,0-2,0.9-2,2V67c0,1.1,0.9,2,2,2h2.1c1.1,0,2-0.9,2-2V57h3.2L428.4,67.9z M419.7,51.8v-8.7h4.9
	c3.1,0,4.9,1.7,4.9,4.4c0,2.6-1.8,4.3-4.9,4.3H419.7z"/>
<path class="st0" d="M479.1,69c1.1,0,2-0.9,2-2V39.8c0-1.1-0.9-2-2-2H477c-1.1,0-2,0.9-2,2v18.6l-12.4-19.7c-0.4-0.6-1-0.9-1.7-0.9
	h-4.5c-1.1,0-2,0.9-2,2V67c0,1.1,0.9,2,2,2h2.1c1.1,0,2-0.9,2-2V46.9l13.6,21.2c0.4,0.6,1,0.9,1.7,0.9H479.1z"/>
<path class="st0" d="M519.2,69c1.1,0,2-0.9,2-2v-1.7c0-1.1-0.9-2-2-2h-11.5v-7.2h10.2c1.1,0,2-0.9,2-2v-1.4c0-1.1-0.9-2-2-2h-10.2
	v-7.1h11.5c1.1,0,2-0.9,2-2v-1.7c0-1.1-0.9-2-2-2h-15.5c-1.1,0-2,0.9-2,2V67c0,1.1,0.9,2,2,2H519.2z"/>
<path class="st0" d="M561.2,43.6c1.1,0,2-0.9,2-2v-1.8c0-1.1-0.9-2-2-2h-21.8c-1.1,0-2,0.9-2,2v1.8c0,1.1,0.9,2,2,2h7.9V67
	c0,1.1,0.9,2,2,2h2.1c1.1,0,2-0.9,2-2V43.6H561.2z"/>
<path class="st0" d="M617.3,69.7c7.7,0,12.1-4.5,13.8-8.8c0.4-1-0.2-2-1.2-2.4l-1.9-0.6c-1.1-0.3-2.2,0.3-2.7,1.3
	c-1.3,2.3-3.8,4.5-8,4.5c-5,0-9.7-3.7-9.7-10.3c0-7.1,4.9-10.4,9.6-10.4c4.2,0,6.6,2,7.8,4.3c0.5,1,1.7,1.7,2.8,1.3l1.9-0.6
	c1-0.3,1.6-1.4,1.2-2.3c-1.8-4.4-6.1-8.6-13.7-8.6c-8.4,0-15.9,6.3-15.9,16.3S608.6,69.7,617.3,69.7z"/>
<path class="st0" d="M654.1,53.4c0-7,4.9-10.4,9.7-10.4c4.8,0,9.8,3.3,9.8,10.4s-4.9,10.4-9.8,10.4C659,63.8,654.1,60.4,654.1,53.4z
	 M647.8,53.4c0,10,7.6,16.2,16,16.2c8.5,0,16.1-6.2,16.1-16.2c0-10.1-7.6-16.3-16.1-16.3C655.4,37.1,647.8,43.3,647.8,53.4z"/>
<path class="st0" d="M731.3,69c1.1,0,2-0.9,2-2V39.8c0-1.1-0.9-2-2-2h-4.9c-0.8,0-1.5,0.5-1.9,1.2l-8.6,21.3L707,39
	c-0.3-0.7-1-1.2-1.8-1.2h-4.7c-1.1,0-2,0.9-2,2V67c0,1.1,0.9,2,2,2h1.8c1.1,0,2-0.9,2-2V47.3l8.5,20.5c0.3,0.7,1,1.2,1.8,1.2h2.4
	c0.8,0,1.5-0.5,1.8-1.2l8.5-20.6V67c0,1.1,0.9,2,2,2H731.3z"/>
<path class="st0" d="M759.9,52v-8.9h4.8c3,0,4.9,1.7,4.9,4.5c0,2.7-1.8,4.4-4.9,4.4H759.9z M765.5,57.3c6.2,0,10.3-4,10.3-9.7
	c0-5.6-4.1-9.7-10.3-9.7h-9.7c-1.1,0-2,0.9-2,2V67c0,1.1,0.9,2,2,2h2.1c1.1,0,2-0.9,2-2v-9.7H765.5z"/>
<path class="st0" d="M805.4,69.7c6.7,0,12-4.1,12-11.7V39.8c0-1.1-0.9-2-2-2h-2.1c-1.1,0-2,0.9-2,2v17.7c0,4.1-2.2,6.2-5.9,6.2
	c-3.6,0-5.9-2.2-5.9-6.2V39.8c0-1.1-0.9-2-2-2h-2.1c-1.1,0-2,0.9-2,2V58C793.4,65.6,798.7,69.7,805.4,69.7z"/>
<path class="st0" d="M858.5,43.6c1.1,0,2-0.9,2-2v-1.8c0-1.1-0.9-2-2-2h-21.8c-1.1,0-2,0.9-2,2v1.8c0,1.1,0.9,2,2,2h7.9V67
	c0,1.1,0.9,2,2,2h2.1c1.1,0,2-0.9,2-2V43.6H858.5z"/>
<path class="st0" d="M895.6,69c1.1,0,2-0.9,2-2v-1.7c0-1.1-0.9-2-2-2h-11.5v-7.2h10.2c1.1,0,2-0.9,2-2v-1.4c0-1.1-0.9-2-2-2h-10.2
	v-7.1h11.5c1.1,0,2-0.9,2-2v-1.7c0-1.1-0.9-2-2-2h-15.5c-1.1,0-2,0.9-2,2V67c0,1.1,0.9,2,2,2H895.6z"/>
<path class="st0" d="M931.6,67.9c0.3,0.7,1,1.1,1.8,1.1h2.2c1.5,0,2.5-1.6,1.8-2.9l-5.2-9.8c4.1-1.2,6.6-4.5,6.6-8.8
	c0-5.4-3.9-9.6-9.9-9.6h-12.2V67c0,1.1,0.9,2,2,2h2.1c1.1,0,2-0.9,2-2V57h3.2L931.6,67.9z M922.9,51.8v-8.7h4.9
	c3.1,0,4.9,1.7,4.9,4.4c0,2.6-1.8,4.3-4.9,4.3H922.9z"/>
<linearGradient id="SVGID_1_" gradientUnits="userSpaceOnUse" x1="145.3074" y1="102.7321" x2="221.3884" y2="23.9477" gradientTransform="matrix(1 0 0 -1 0 109.89)">
	<stop  offset="0.21" style="stop-color:#F15A24"/>
	<stop  offset="0.6841" style="stop-color:#FBB03B"/>
</linearGradient>
<path class="st1" d="M174.4,0c-12.9,0-26.9,6.6-41.8,19.6c-7,6.2-13.1,12.8-17.7,18c0,0,0,0,0,0v0c0,0,7.2,7.8,15.2,16.2
	c4.3-5.1,10.4-12,17.5-18.2c13.2-11.6,21.8-14,26.7-14c18.5,0,33.6,14.7,33.6,32.7c0,17.9-15.1,32.6-33.6,32.7
	c-0.8,0-1.9-0.1-3.3-0.4c5.4,2.3,11.2,4,16.7,4c33.9,0,40.6-22.1,41-23.7c1-4,1.5-8.3,1.5-12.6C230.4,24.4,205.3,0,174.4,0z"/>
<linearGradient id="SVGID_00000075123467341790440530000014422145279718792102_" gradientUnits="userSpaceOnUse" x1="85.0866" y1="8.2548" x2="9.0053" y2="87.0389" gradientTransform="matrix(1 0 0 -1 0 109.89)">
	<stop  offset="0.21" style="stop-color:#ED1E79"/>
	<stop  offset="0.8929" style="stop-color:#522785"/>
</linearGradient>
<path style="fill:url(#SVGID_00000075123467341790440530000014422145279718792102_);" d="M56,108.8c12.9,0,26.9-6.6,41.8-19.6
	c7-6.2,13.1-12.8,17.7-18c0,0,0,0,0,0v0c0,0-7.2-7.8-15.2-16.2c-4.3,5.1-10.4,12-17.5,18.2c-13.2,11.6-21.8,14-26.7,14
	c-18.5,0-33.6-14.7-33.6-32.8c0-17.9,15.1-32.6,33.6-32.7c0.8,0,1.9,0.1,3.3,0.4c-5.4-2.3-11.2-4-16.7-4C8.6,18.1,2,40.2,1.5,41.8
	C0.5,45.8,0,50,0,54.4C0,84.4,25.1,108.8,56,108.8z"/>
<path class="st3" d="M187.8,90.2c-17.4-0.4-35.4-14.1-39.1-17.5c-9.5-8.8-31.5-32.6-33.2-34.5C99.4,20.2,77.6,0,56,0h0h0
	C29.6,0.1,7.4,18,1.5,41.8c0.4-1.6,9.1-24.1,41-23.3C59.8,18.9,78,32.8,81.7,36.2c9.5,8.8,31.5,32.6,33.2,34.5
	c16.1,18,37.9,38.2,59.6,38.2h0h0c26.3-0.1,48.5-18,54.4-41.8C228.4,68.6,219.7,91,187.8,90.2z"/>
</svg>
